<?xml version="1.0" standalone="no"?>
<!DOCTYPE svg PUBLIC "-//W3C//DTD SVG 20010904//EN"
 "http://www.w3.org/TR/2001/REC-SVG-20010904/DTD/svg10.dtd">
<svg version="1.0" xmlns="http://www.w3.org/2000/svg"
 width="1510.000000pt" height="1510.000000pt" viewBox="0 0 1510.000000 1510.000000"
 preserveAspectRatio="xMidYMid meet">

<g transform="translate(0.000000,1510.000000) scale(0.100000,-0.100000)"
fill="#000000" stroke="none">
<path d="M7167 14064 c-1 -1 -81 -4 -178 -8 -97 -3 -182 -8 -190 -10 -16 -5
-128 -14 -264 -22 -123 -6 -209 -21 -280 -49 -33 -13 -98 -38 -145 -55 -47
-17 -128 -51 -180 -75 -116 -53 -166 -75 -247 -109 -35 -14 -87 -37 -115 -50
-29 -13 -87 -36 -128 -51 -41 -15 -84 -31 -95 -35 -11 -5 -72 -24 -135 -44
-107 -34 -235 -92 -270 -122 -8 -7 -18 -13 -23 -13 -4 -1 -40 -17 -80 -37 -39
-20 -89 -45 -109 -55 -20 -11 -42 -19 -48 -19 -5 0 -10 -10 -10 -22 0 -18 -2
-20 -9 -9 -8 12 -13 12 -34 -2 -13 -8 -30 -22 -38 -29 -8 -7 -30 -26 -49 -42
-19 -16 -69 -59 -110 -96 -41 -38 -115 -101 -165 -140 -49 -40 -92 -76 -95
-79 -3 -4 -23 -20 -45 -37 -22 -16 -48 -36 -58 -44 -10 -8 -61 -70 -113 -137
-52 -67 -99 -125 -104 -128 -6 -4 -22 -24 -36 -46 -13 -21 -30 -38 -36 -36 -7
1 -14 -8 -16 -20 -2 -13 -15 -32 -29 -43 -14 -11 -23 -20 -19 -20 9 0 -21 -42
-64 -89 -16 -18 -30 -37 -30 -42 0 -4 -22 -37 -48 -72 -27 -35 -52 -70 -55
-78 -4 -8 -18 -32 -32 -54 -13 -22 -27 -48 -31 -57 -3 -10 -12 -18 -19 -18 -7
0 -16 -16 -19 -35 -4 -19 -11 -35 -16 -35 -6 0 -10 -6 -10 -14 0 -7 -10 -35
-22 -62 -12 -27 -21 -52 -20 -56 1 -5 -2 -8 -7 -8 -5 0 -13 -10 -16 -22 -4
-13 -13 -36 -20 -53 -71 -162 -91 -267 -109 -565 -17 -269 -20 -338 -19 -465
0 -152 2 -160 88 -385 21 -52 53 -135 72 -185 63 -165 200 -429 263 -509 58
-73 64 -78 92 -67 26 10 42 2 43 -22 0 -18 180 -144 492 -345 141 -91 170 -97
478 -95 243 1 252 1 310 26 33 14 105 34 160 46 115 24 243 85 485 231 198
119 425 242 744 404 186 94 321 171 440 250 395 262 592 384 716 446 36 18
115 65 175 105 61 41 180 109 265 153 85 43 191 99 235 124 44 25 122 69 172
97 289 163 550 244 938 291 55 7 145 21 200 32 129 25 374 35 486 19 99 -14
309 -69 429 -112 93 -33 168 -73 245 -128 28 -20 61 -41 75 -48 14 -6 55 -25
91 -42 36 -17 69 -31 72 -31 4 0 30 -14 59 -32 77 -47 195 -169 318 -328 51
-66 63 -81 83 -102 9 -10 17 -22 17 -27 0 -5 7 -11 15 -15 8 -3 15 -12 15 -20
0 -8 11 -27 23 -43 21 -24 107 -191 107 -205 0 -3 8 -23 17 -44 9 -22 17 -41
18 -44 1 -3 5 -18 10 -35 4 -16 11 -35 16 -40 12 -16 22 -120 19 -210 -1 -44
-1 -93 -1 -110 1 -51 -19 -146 -40 -184 -10 -19 -19 -41 -19 -48 0 -32 -76
-137 -133 -185 -133 -111 -309 -165 -627 -193 -94 -8 -222 -26 -284 -40 -208
-47 -312 -100 -432 -219 -123 -124 -183 -236 -302 -571 -295 -830 -283 -791
-258 -830 35 -54 84 -24 225 135 260 295 398 400 574 436 79 17 112 14 237
-23 115 -34 262 -41 361 -19 94 21 159 51 278 130 107 70 153 96 174 96 7 0
23 9 35 20 24 23 70 43 81 35 5 -2 11 -39 14 -81 17 -191 146 -320 397 -395
144 -42 295 -103 378 -153 61 -35 128 -126 157 -211 17 -50 46 -167 49 -195 3
-24 16 -41 28 -34 6 4 6 -1 -1 -14 -7 -14 -8 -23 -1 -27 10 -6 11 -5 14 14 0
5 5 13 10 18 5 5 6 3 2 -4 -4 -7 -2 -13 4 -13 7 0 10 -6 7 -13 -3 -7 1 -21 9
-32 8 -10 14 -31 14 -46 0 -15 7 -34 15 -42 13 -13 13 -16 0 -21 -8 -3 -15
-10 -15 -17 0 -6 6 -9 13 -6 10 4 13 -2 10 -18 -3 -13 3 -32 13 -43 19 -23 37
-20 27 3 -3 9 1 15 10 15 33 0 35 -52 5 -97 -39 -56 -65 -37 -82 57 -7 37 -7
37 -16 15 -25 -58 8 -145 55 -145 33 0 70 39 73 77 1 15 6 39 11 53 15 39 24
84 22 99 -1 8 2 10 10 5 9 -5 10 -2 6 9 -3 9 0 38 8 64 8 27 33 111 56 188 22
77 45 145 50 151 5 6 10 25 12 43 4 32 27 69 27 42 0 -22 -48 -203 -75 -280
-14 -41 -25 -76 -25 -79 0 -2 18 22 39 54 77 115 125 346 125 599 1 147 -2
182 -23 260 -70 267 -286 539 -575 726 -238 154 -287 198 -348 316 -62 117
-67 172 -38 437 12 108 1 304 -24 423 -8 35 -12 73 -9 84 3 11 0 19 -6 19 -9
0 -10 14 -5 46 4 27 3 45 -2 41 -5 -3 -8 12 -6 35 4 34 2 39 -14 36 -13 -2
-19 3 -20 17 -1 11 -5 31 -10 45 -13 39 -12 80 3 80 7 0 13 7 13 16 0 8 -5 12
-11 8 -19 -11 -28 17 -22 68 4 36 2 48 -7 48 -7 0 -10 3 -7 6 3 4 0 16 -8 28
-8 11 -15 33 -15 48 0 15 -5 30 -10 33 -6 4 -8 10 -6 14 3 4 0 25 -6 47 -5 21
-12 48 -13 59 -2 11 -15 65 -30 120 -14 55 -28 111 -31 123 -3 13 -12 49 -20
80 -9 32 -24 95 -34 142 -17 77 -39 142 -113 340 -74 193 -76 199 -168 318
-20 26 -53 80 -74 120 -20 39 -44 72 -51 72 -8 0 -14 5 -14 11 0 5 6 7 13 4 6
-4 0 5 -15 19 -16 14 -28 32 -28 41 0 9 -9 19 -20 22 -13 3 -20 14 -20 29 0
15 -6 24 -15 24 -8 0 -15 6 -15 13 0 20 -86 142 -135 190 -25 25 -45 51 -45
59 0 8 -8 22 -18 31 -14 13 -21 14 -30 5 -9 -9 -12 -9 -12 0 0 7 5 12 11 12
13 0 7 21 -6 23 -6 0 -25 21 -42 46 -18 25 -33 43 -33 39 0 -6 -15 6 -123 101
-48 42 -51 43 -58 22 -12 -31 -19 -25 -12 10 6 29 4 31 -18 24 -13 -4 -21 -4
-17 0 8 9 -32 55 -48 55 -8 0 -18 9 -24 20 -6 11 -17 20 -25 20 -7 0 -15 4
-17 9 -4 13 -166 142 -214 171 -21 13 -43 30 -47 37 -4 7 -22 19 -40 28 -18 8
-48 28 -67 45 -19 16 -40 30 -45 30 -6 0 -26 13 -45 30 -19 16 -41 29 -48 30
-8 0 -26 9 -40 21 -46 35 -147 99 -156 99 -5 0 -28 16 -52 35 -23 19 -46 35
-50 35 -4 0 -23 12 -43 28 -68 52 -102 72 -112 67 -5 -3 -6 1 -3 9 4 10 -4 16
-28 21 -18 4 -35 10 -38 14 -3 3 -54 26 -115 50 -108 43 -142 57 -238 100 -26
12 -57 19 -67 16 -11 -3 -22 0 -27 8 -4 8 -33 22 -63 32 -30 10 -59 20 -65 24
-5 3 -19 7 -29 8 -11 2 -24 7 -30 11 -6 5 -33 16 -61 26 -27 9 -62 24 -78 32
-16 9 -36 12 -48 9 -13 -5 -19 -3 -15 3 3 5 -1 15 -9 22 -12 10 -18 10 -32 -1
-9 -8 -14 -9 -10 -3 4 7 0 14 -8 18 -8 3 -18 -2 -23 -11 -8 -14 -10 -14 -15 1
-6 14 -11 15 -28 6 -23 -13 -42 -4 -20 9 10 7 10 9 -2 14 -8 3 -20 0 -26 -6
-6 -6 -11 -7 -11 -1 0 11 -70 34 -115 37 -16 1 -32 5 -35 8 -3 4 -23 9 -45 12
-22 3 -60 10 -85 16 -25 5 -61 13 -80 16 -19 3 -60 12 -90 20 -30 7 -77 17
-105 21 -76 12 -77 12 -120 24 -22 7 -53 14 -70 17 -24 5 -562 11 -568 7z
m1483 -214 c0 -5 -4 -10 -10 -10 -5 0 -10 5 -10 10 0 6 5 10 10 10 6 0 10 -4
10 -10z m137 -430 c-15 -26 -27 -25 -27 1 0 11 5 17 10 14 6 -3 10 -1 10 5 0
6 4 8 10 5 6 -4 5 -13 -3 -25z m-37 0 c0 -5 -7 -10 -15 -10 -8 0 -15 5 -15 10
0 6 7 10 15 10 8 0 15 -4 15 -10z m595 -161 c-4 -5 -16 -9 -28 -9 -21 1 -21 1
-3 15 20 15 41 11 31 -6z m91 -6 c-11 -11 -35 -12 -42 -2 -3 5 7 9 22 9 15 0
24 -3 20 -7z m-2630 -1530 c-10 -10 -19 5 -10 18 6 11 8 11 12 0 2 -7 1 -15
-2 -18z m54 13 c0 -3 -4 -8 -10 -11 -5 -3 -10 -1 -10 4 0 6 5 11 10 11 6 0 10
-2 10 -4z m-70 -41 c0 -8 -4 -15 -10 -15 -5 0 -10 7 -10 15 0 8 5 15 10 15 6
0 10 -7 10 -15z m-330 -140 c-14 -8 -19 -14 -12 -15 6 0 12 -10 12 -22 0 -22
-84 -108 -106 -108 -5 0 -23 -14 -40 -31 -33 -36 -66 -51 -76 -36 -3 6 0 17 8
25 21 20 12 25 -19 9 -20 -10 -22 -15 -11 -23 11 -8 11 -12 -1 -28 -8 -11 -18
-17 -21 -13 -4 4 -2 13 4 20 9 11 6 16 -13 25 -16 7 -25 8 -25 1 0 -5 -8 -13
-17 -16 -10 -4 -28 -17 -40 -30 -12 -13 -24 -23 -27 -23 -3 0 -17 -11 -32 -25
-16 -15 -21 -25 -13 -25 8 0 28 13 45 29 26 24 33 27 48 16 16 -12 15 -15 -13
-31 -17 -10 -31 -22 -31 -26 0 -4 -6 -7 -12 -5 -7 1 -12 -6 -12 -15 1 -13 -6
-18 -27 -18 -17 0 -32 -7 -38 -19 -6 -10 -17 -21 -26 -25 -13 -5 -14 -2 -3 17
7 12 12 28 13 36 0 8 6 16 14 19 9 3 11 0 6 -8 -5 -9 -4 -11 3 -6 19 11 15 39
-4 32 -39 -15 -64 -18 -64 -7 0 6 3 10 8 9 9 -4 46 23 56 41 5 8 -2 6 -19 -5
-27 -18 -55 -27 -55 -18 0 14 46 48 145 106 130 78 384 208 405 207 9 0 5 -6
-10 -14z m-296 -226 c-3 -6 0 -15 7 -20 11 -7 10 -9 -3 -9 -18 0 -24 20 -11
33 10 11 15 8 7 -4z m-254 -83 c0 -8 -4 -18 -10 -21 -5 -3 -10 3 -10 14 0 12
5 21 10 21 6 0 10 -6 10 -14z m-38 -38 c-8 -8 -9 -4 -5 13 4 13 8 18 11 10 2
-7 -1 -18 -6 -23z m-122 -52 c0 -2 -16 -14 -36 -25 -20 -12 -34 -25 -31 -28 4
-3 15 0 24 8 16 13 17 12 5 -3 -8 -10 -24 -16 -35 -15 -16 1 -21 -3 -19 -16 3
-15 -1 -17 -18 -12 -14 4 -20 2 -18 -7 2 -7 -4 -13 -12 -13 -18 0 -72 -40 -65
-47 3 -3 -1 -5 -8 -5 -17 0 -177 -122 -177 -135 0 -5 -8 -17 -17 -26 -13 -13
-17 -14 -21 -3 -2 7 -7 9 -11 4 -11 -16 -71 -55 -71 -46 0 10 14 22 95 83 33
24 66 50 75 56 63 52 275 203 307 219 30 16 33 17 33 11z m-1316 -39 c12 -34
-8 -57 -77 -92 -67 -33 -172 -33 -149 0 10 15 143 102 172 114 34 13 43 9 54
-22z m1076 -182 c-7 -9 -15 -13 -18 -10 -3 3 -11 0 -19 -7 -11 -8 -12 -7 -7 6
4 10 13 15 20 12 7 -3 16 -1 19 4 4 6 9 10 12 10 3 0 0 -7 -7 -15z m-280 -159
c0 -3 -4 -8 -10 -11 -5 -3 -10 -1 -10 4 0 6 5 11 10 11 6 0 10 -2 10 -4z m-30
-20 c0 -2 -8 -10 -17 -17 -16 -13 -17 -12 -4 4 13 16 21 21 21 13z m-40 -30
c0 -2 -8 -10 -17 -17 -16 -13 -17 -12 -4 4 13 16 21 21 21 13z m-60 -50 c0 -3
-15 -14 -32 -26 l-33 -22 28 26 c27 25 37 31 37 22z m-90 -71 c-13 -14 -26
-23 -28 -20 -4 4 38 44 47 45 3 0 -6 -11 -19 -25z m-40 -32 c0 -5 -17 -19 -36
-33 -20 -14 -44 -33 -55 -42 -10 -10 -20 -14 -23 -10 -3 4 18 23 45 41 27 19
49 38 49 43 0 4 5 8 10 8 6 0 10 -3 10 -7z m6905 -163 c3 -5 1 -10 -4 -10 -6
0 -11 5 -11 10 0 6 2 10 4 10 3 0 8 -4 11 -10z m-7105 -14 c0 -11 -19 -15 -25
-6 -3 5 1 10 9 10 9 0 16 -2 16 -4z m-212 -178 c-3 -7 -13 -15 -24 -17 -16 -3
-17 -1 -5 13 16 19 34 21 29 4z m-58 -37 c0 -6 -12 -23 -26 -38 -19 -21 -24
-23 -20 -9 5 15 1 14 -20 -7 -29 -29 -47 -29 -23 -1 11 13 76 61 87 63 1 1 2
-3 2 -8z m40 -16 c-7 -9 -15 -13 -17 -11 -7 7 7 26 19 26 6 0 6 -6 -2 -15z
m-174 -95 c0 -13 -7 -20 -20 -20 -18 0 -19 1 -1 20 10 11 19 20 19 20 1 0 2
-9 2 -20z m-61 -50 c-17 -32 -35 -40 -35 -15 0 8 6 15 14 15 8 0 16 7 20 15 3
8 8 15 11 15 3 0 -1 -13 -10 -30z m-45 -28 c0 -9 -25 -33 -50 -48 -8 -4 -4 6
10 23 25 32 40 41 40 25z m7657 -54 c-3 -8 -6 -5 -6 6 -1 11 2 17 5 13 3 -3 4
-12 1 -19z m43 -229 c0 -10 -4 -19 -10 -19 -5 0 -10 12 -10 26 0 14 4 23 10
19 6 -3 10 -15 10 -26z m-8030 -43 c0 -8 -11 -17 -25 -20 -28 -7 -34 -26 -8
-26 14 0 14 -3 5 -12 -10 -10 -15 -10 -23 2 -8 13 -11 12 -24 -5 -14 -18 -14
-20 1 -25 15 -6 15 -7 0 -23 -22 -22 -25 -21 -53 4 l-22 22 72 48 c39 27 73
49 75 49 1 0 2 -6 2 -14z m8030 -6 c0 -11 -2 -20 -4 -20 -2 0 -6 9 -9 20 -3
11 -1 20 4 20 5 0 9 -9 9 -20z m-23 -462 c-3 -7 -5 -2 -5 12 0 14 2 19 5 13 2
-7 2 -19 0 -25z m27 -88 c7 -33 6 -34 -9 -16 -8 11 -15 36 -14 55 0 29 2 32 8
16 5 -11 11 -36 15 -55z m26 -60 c0 -5 14 -32 30 -61 17 -28 28 -54 25 -58 -9
-8 -33 25 -56 77 -22 51 -22 52 -9 52 6 0 10 -4 10 -10z m-1255 -60 c-3 -5
-27 -9 -53 -8 l-47 1 45 7 c25 4 49 8 53 8 5 1 5 -2 2 -8z m65 1 c0 -11 -26
-22 -34 -14 -12 12 -5 23 14 23 11 0 20 -4 20 -9z m-480 -105 c0 -2 -8 -10
-17 -17 -16 -13 -17 -12 -4 4 13 16 21 21 21 13z m-340 -406 c0 -5 -5 -10 -11
-10 -5 0 -7 5 -4 10 3 6 8 10 11 10 2 0 4 -4 4 -10z m-47 -110 c-5 -19 -23
-29 -23 -12 0 7 20 32 26 32 1 0 0 -9 -3 -20z m2817 -32 c0 -6 -7 -5 -15 2 -8
7 -15 17 -15 22 0 6 7 5 15 -2 8 -7 15 -17 15 -22z m-2666 -274 c9 -24 2 -26
-12 -4 -7 11 -8 20 -3 20 5 0 12 -7 15 -16z m-29 -44 c3 -5 1 -10 -4 -10 -6 0
-11 5 -11 10 0 6 2 10 4 10 3 0 8 -4 11 -10z m700 -75 c6 -3 -8 -3 -30 0 -54
8 -145 36 -145 45 0 7 147 -31 175 -45z m-995 -65 c0 -5 -4 -10 -10 -10 -5 0
-10 5 -10 10 0 6 5 10 10 10 6 0 10 -4 10 -10z m2090 -73 c19 -9 28 -17 20
-17 -21 0 -116 45 -125 60 -4 6 10 3 31 -7 22 -11 55 -27 74 -36z m-1886 -42
c-49 -47 -90 -85 -92 -85 -2 0 11 19 28 43 39 55 117 121 149 126 2 1 -36 -37
-85 -84z m-239 14 c-10 -15 -25 -10 -19 6 4 8 10 12 15 9 5 -3 7 -10 4 -15z
m3234 -56 c1 -7 -3 -13 -9 -13 -5 0 -10 15 -9 33 0 27 2 29 9 12 5 -11 9 -26
9 -32z m-3266 -36 c-6 -12 -22 -60 -37 -107 -15 -47 -30 -92 -33 -100 -5 -12
-2 -11 13 2 19 17 20 16 19 -6 0 -45 -65 -91 -65 -47 0 10 18 70 39 132 54
157 63 176 68 161 3 -8 1 -24 -4 -35z m77 -111 c0 -3 -4 -8 -10 -11 -5 -3 -10
-1 -10 4 0 6 5 11 10 11 6 0 10 -2 10 -4z m3157 -98 c-3 -8 -6 -5 -6 6 -1 11
2 17 5 13 3 -3 4 -12 1 -19z m-300 -490 c-3 -8 -6 -5 -6 6 -1 11 2 17 5 13 3
-3 4 -12 1 -19z"/>
<path d="M6305 11469 c-4 -6 -5 -12 -2 -15 2 -3 7 2 10 11 7 17 1 20 -8 4z"/>
<path d="M11915 10240 c3 -5 8 -10 11 -10 2 0 4 5 4 10 0 6 -5 10 -11 10 -5 0
-7 -4 -4 -10z"/>
<path d="M2490 9614 c-66 -56 -207 -400 -271 -659 -40 -163 -56 -347 -41 -473
16 -133 35 -201 87 -310 113 -236 281 -414 575 -608 138 -91 217 -170 264
-266 55 -110 64 -181 43 -326 -9 -64 -17 -173 -17 -242 0 -134 24 -373 41
-403 7 -13 7 -23 -1 -32 -8 -9 -9 -26 -4 -47 4 -18 8 -42 9 -53 1 -12 8 -19
17 -17 16 2 26 -27 34 -105 4 -36 1 -43 -13 -43 -14 0 -13 -3 5 -20 18 -17 21
-28 16 -59 -4 -27 0 -51 15 -85 12 -25 21 -52 20 -59 -1 -6 0 -19 3 -27 3 -8
10 -37 16 -65 6 -27 22 -97 36 -155 42 -175 68 -292 81 -360 17 -86 33 -139
89 -295 26 -71 56 -156 68 -189 11 -32 41 -87 67 -123 49 -67 79 -116 149
-238 24 -41 47 -75 52 -75 4 0 11 -11 14 -25 4 -14 13 -25 21 -25 8 0 15 -9
15 -20 0 -11 7 -23 15 -26 8 -4 15 -11 15 -17 0 -17 91 -148 131 -189 20 -20
34 -40 31 -43 -3 -3 0 -5 6 -5 7 0 12 -8 12 -18 0 -10 20 -40 45 -65 25 -26
45 -52 45 -57 0 -5 17 -21 38 -37 20 -15 64 -51 98 -80 54 -47 95 -70 79 -44
-6 11 13 26 22 17 3 -3 0 -12 -6 -20 -15 -17 -6 -37 12 -31 7 3 20 -8 29 -25
9 -16 24 -30 32 -30 8 0 20 -9 26 -20 6 -11 17 -20 25 -20 8 0 15 -4 15 -8 0
-9 169 -148 215 -177 17 -11 33 -25 37 -31 5 -7 28 -24 53 -38 24 -15 57 -38
71 -51 15 -14 31 -25 37 -25 5 0 26 -13 47 -30 21 -16 41 -30 45 -30 3 0 21
-11 39 -25 18 -14 36 -25 39 -25 4 0 29 -16 56 -35 26 -19 52 -35 55 -35 4 0
28 -17 54 -39 26 -21 54 -40 62 -43 8 -3 40 -26 70 -50 30 -25 61 -43 69 -40
8 2 11 0 8 -5 -6 -9 33 -29 163 -85 25 -11 59 -26 75 -33 17 -7 42 -17 58 -20
15 -4 27 -11 27 -15 0 -4 20 -13 45 -20 25 -7 48 -16 50 -21 3 -4 29 -15 58
-24 28 -10 56 -21 62 -26 5 -5 17 -9 26 -9 10 0 30 -7 46 -15 41 -21 183 -75
198 -75 8 0 15 -5 17 -12 2 -6 18 -11 36 -11 17 0 29 -4 26 -8 -2 -4 0 -10 6
-14 5 -3 10 -1 10 4 0 6 5 11 11 11 6 0 9 -6 6 -14 -8 -21 44 -28 60 -8 11 15
12 14 13 -8 0 -14 4 -20 8 -15 4 6 16 11 27 12 11 1 14 0 8 -3 -22 -10 -14
-20 15 -21 15 -1 88 -17 162 -36 74 -20 153 -38 175 -41 45 -7 181 -38 295
-67 41 -10 98 -24 125 -30 58 -14 787 -20 905 -8 41 4 131 10 200 14 208 10
322 24 377 45 29 12 79 30 110 42 32 12 155 61 273 110 233 97 421 172 485
193 22 8 65 23 96 34 31 11 91 29 133 41 68 18 208 82 244 112 6 6 12 8 12 5
0 -3 44 16 98 43 53 27 109 53 125 59 15 6 27 18 27 27 0 13 3 14 13 5 11 -8
20 -6 38 9 13 11 29 23 34 27 31 24 129 106 190 158 76 66 240 197 320 257 27
21 79 76 115 122 137 178 185 235 197 231 6 -2 14 8 18 22 7 28 28 53 45 53 6
0 9 4 5 10 -3 5 11 28 32 52 45 50 39 43 106 138 48 68 91 134 124 193 7 12
17 21 22 20 5 -1 12 13 15 32 4 19 11 35 16 35 6 0 10 8 10 19 0 10 7 24 15
31 8 7 15 16 15 21 0 5 18 48 40 95 22 47 40 92 40 98 0 7 3 16 7 20 4 3 13
23 21 44 36 97 49 154 51 212 1 34 3 65 5 69 2 3 7 51 11 106 4 55 8 113 10
128 2 16 7 77 10 135 4 59 8 123 11 142 2 19 4 85 4 146 0 100 -3 122 -35 215
-35 106 -83 242 -104 292 -6 16 -11 34 -11 40 0 7 -7 23 -16 35 -8 12 -12 22
-8 22 3 0 -1 11 -10 25 -9 13 -16 29 -16 35 0 6 -31 75 -69 153 -70 142 -185
327 -204 327 -6 0 -18 -7 -27 -15 -15 -14 -19 -13 -36 7 -19 22 -19 23 1 8 19
-14 19 -14 6 3 -29 37 -192 158 -356 265 -93 61 -185 122 -203 135 -66 50
-152 62 -427 62 -232 0 -254 -2 -305 -22 -31 -11 -103 -31 -160 -43 -119 -25
-262 -88 -438 -193 -59 -36 -161 -94 -227 -130 -138 -74 -723 -367 -775 -387
-19 -8 -78 -42 -130 -75 -427 -278 -729 -459 -860 -518 -30 -13 -98 -53 -150
-88 -52 -36 -167 -100 -255 -143 -88 -43 -229 -117 -314 -164 -360 -199 -611
-283 -972 -322 -101 -11 -191 -22 -199 -25 -50 -15 -254 -35 -365 -35 -146 -1
-256 16 -420 62 -213 60 -335 114 -442 195 -62 48 -88 63 -111 63 -10 0 -22 4
-28 9 -5 6 -54 33 -108 61 -98 50 -107 57 -239 200 -22 24 -75 90 -127 160
-14 18 -30 38 -36 44 -19 20 -94 125 -94 132 0 4 -11 21 -23 38 -43 57 -157
316 -157 357 0 9 -3 19 -6 22 -17 16 -20 304 -4 362 1 6 2 14 1 19 -4 19 21
106 30 106 5 0 9 6 9 13 0 6 11 36 25 65 48 104 180 215 316 266 85 32 268 63
444 76 533 38 763 181 939 583 91 210 367 972 369 1020 2 64 -44 76 -109 28
-36 -26 -190 -186 -260 -270 -51 -61 -212 -187 -287 -225 -144 -73 -225 -81
-371 -36 -245 75 -430 55 -624 -68 -101 -64 -177 -106 -211 -117 -13 -4 -44
-20 -69 -36 -32 -20 -49 -26 -57 -19 -7 6 -15 46 -17 93 -7 107 -32 164 -106
236 -66 64 -162 118 -277 154 -83 27 -202 70 -232 86 -10 5 -54 26 -97 47
-170 82 -232 233 -276 669 -13 127 -24 171 -53 203 -26 28 -39 28 -77 -4z m65
-46 c7 -18 18 -78 24 -133 7 -55 14 -112 17 -127 3 -16 1 -28 -5 -28 -14 0
-34 77 -29 112 3 16 1 31 -4 34 -4 3 -8 14 -8 25 0 10 -4 19 -9 19 -5 0 -13 9
-16 20 -4 11 -11 18 -16 14 -6 -3 -8 -12 -5 -20 7 -19 -14 -30 -25 -13 -16 25
-9 60 17 95 15 19 31 34 36 34 5 0 15 -15 23 -32z m-140 -200 c-7 -24 -22 -70
-33 -103 -10 -33 -34 -107 -53 -165 -18 -57 -39 -116 -46 -130 -7 -14 -13 -33
-13 -42 0 -9 -5 -20 -11 -24 -27 -16 41 219 119 413 38 96 60 125 37 51z m185
-118 c0 -5 -5 -10 -11 -10 -5 0 -7 5 -4 10 3 6 8 10 11 10 2 0 4 -4 4 -10z
m2975 -397 c-10 -56 -96 -283 -106 -283 -12 0 -12 27 0 34 5 3 11 18 14 33 2
16 16 57 29 93 43 111 43 108 19 82 l-20 -23 2 23 c3 30 17 52 42 66 28 16 28
16 20 -25z m-3328 5 c-3 -8 -6 -5 -6 6 -1 11 2 17 5 13 3 -3 4 -12 1 -19z
m3253 -42 c0 -2 -7 -7 -16 -10 -8 -3 -12 -2 -9 4 6 10 25 14 25 6z m-80 -85
c0 -6 -4 -13 -10 -16 -5 -3 -10 1 -10 9 0 9 5 16 10 16 6 0 10 -4 10 -9z
m-3190 -121 c0 -10 -4 -22 -10 -25 -6 -4 -10 7 -10 25 0 18 4 29 10 25 6 -3
10 -15 10 -25z m3026 -45 c-39 -46 -83 -83 -126 -105 -14 -7 16 26 65 73 50
46 92 83 94 81 2 -2 -13 -24 -33 -49z m-1896 -50 c27 -13 51 -29 55 -35 6 -9
-68 23 -110 47 -37 23 5 13 55 -12z m2092 -7 c-7 -7 -12 -8 -12 -2 0 14 12 26
19 19 2 -3 -1 -11 -7 -17z m-36 -105 c-10 -10 -19 5 -10 18 6 11 8 11 12 0 2
-7 1 -15 -2 -18z m-901 -54 c36 -12 65 -25 65 -30 0 -4 -12 -3 -27 2 -16 5
-55 18 -88 28 -33 11 -50 20 -38 20 13 1 52 -9 88 -20z m579 -129 c-6 -5 -24
21 -24 34 0 6 6 1 14 -10 8 -10 12 -21 10 -24z m-2664 -232 c0 -6 -7 -5 -15 2
-8 7 -15 17 -15 22 0 6 7 5 15 -2 8 -7 15 -17 15 -22z m2801 -65 c-8 -15 -10
-15 -11 -2 0 17 10 32 18 25 2 -3 -1 -13 -7 -23z m-41 -97 c0 -3 -4 -8 -10
-11 -5 -3 -10 -1 -10 4 0 6 5 11 10 11 6 0 10 -2 10 -4z m-345 -396 c-3 -5
-12 -10 -18 -10 -7 0 -6 4 3 10 19 12 23 12 15 0z m-1689 -107 c24 -61 10 -65
-20 -5 -14 28 -30 53 -36 57 -5 3 -10 13 -10 22 0 28 48 -25 66 -74z m1225 2
c0 -13 -41 -19 -41 -7 0 11 20 22 33 18 5 -1 8 -6 8 -11z m104 5 c4 -6 -10
-10 -37 -9 -40 1 -41 2 -13 9 43 11 43 11 50 0z m-1286 -149 c0 -29 -2 -32 -8
-16 -5 11 -11 36 -15 55 -7 33 -6 34 9 16 8 -11 15 -36 14 -55z m8 -73 c-3 -8
-6 -5 -6 6 -1 11 2 17 5 13 3 -3 4 -12 1 -19z m-17 -450 c0 -5 -4 -8 -10 -8
-5 0 -10 10 -10 23 0 18 2 19 10 7 5 -8 10 -18 10 -22z m8139 -19 c13 -11 22
-21 20 -23 -8 -7 -95 -61 -118 -73 -28 -16 -31 -16 -31 -3 0 6 6 10 14 10 7 0
28 13 47 29 26 23 31 32 21 43 -9 11 -9 17 0 26 16 16 19 15 47 -9z m-8139
-25 c0 -14 -4 -23 -10 -19 -5 3 -10 15 -10 26 0 10 5 19 10 19 6 0 10 -12 10
-26z m8062 -26 c-6 -6 -15 -8 -19 -4 -4 4 -1 11 7 16 19 12 27 3 12 -12z
m-237 -248 c-10 -11 -21 -18 -23 -15 -3 3 3 12 14 20 27 20 30 18 9 -5z m-127
-119 c-46 -44 -58 -49 -58 -26 0 8 6 15 13 15 7 0 28 14 46 31 18 16 35 28 38
25 3 -2 -15 -23 -39 -45z m-69 -53 c-2 -2 -22 -19 -44 -38 -22 -19 -32 -26
-22 -14 13 16 14 23 5 32 -9 9 -6 12 14 12 15 0 30 5 33 11 4 6 10 8 13 5 3
-3 3 -7 1 -8z m-109 -88 c-34 -27 -90 -61 -90 -54 0 17 24 45 35 40 7 -2 21 4
31 15 9 10 24 19 33 19 12 0 9 -6 -9 -20z m-110 -35 c-7 -9 -15 -13 -17 -11
-7 7 7 26 19 26 6 0 6 -6 -2 -15z m-13 -52 c-9 -9 -19 -14 -23 -11 -10 10 6
28 24 28 15 0 15 -1 -1 -17z m-7327 -73 c0 -5 -2 -10 -4 -10 -3 0 -8 5 -11 10
-3 6 -1 10 4 10 6 0 11 -4 11 -10z m7110 -99 c0 -6 -4 -12 -8 -15 -5 -3 -9 1
-9 9 0 8 4 15 9 15 4 0 8 -4 8 -9z m-30 -35 c0 -3 -4 -8 -10 -11 -5 -3 -10 -1
-10 4 0 6 5 11 10 11 6 0 10 -2 10 -4z m-40 -30 c0 -6 -93 -77 -170 -130 l-55
-38 40 36 c22 20 65 53 95 73 30 20 61 43 68 50 14 13 22 17 22 9z m-256 -198
c-44 -33 -53 -36 -19 -6 16 15 34 28 39 28 5 0 -4 -10 -20 -22z m-64 -42 c0
-2 -8 -10 -17 -17 -16 -13 -17 -12 -4 4 13 16 21 21 21 13z m-41 -40 c-10 -8
-223 -166 -300 -222 -108 -79 -269 -184 -280 -184 -20 0 -7 16 21 27 18 7 28
16 25 25 -3 7 5 19 17 27 l23 14 -20 -23 -20 -23 23 12 c12 6 22 16 22 22 0
18 25 36 45 33 22 -3 78 34 70 47 -4 5 1 6 9 3 9 -3 16 -2 16 2 0 5 18 20 40
33 21 14 37 28 34 33 -3 4 3 8 13 8 23 1 43 17 72 58 12 17 27 32 34 32 6 0 2
-7 -9 -16 -35 -28 36 14 101 60 33 24 62 41 64 39 2 -1 2 -5 0 -7z m-299 -183
c0 -3 -6 -3 -14 0 -7 3 -20 0 -27 -6 -11 -10 -11 -9 0 5 11 15 41 15 41 1z
m1261 -100 c10 -10 -122 -103 -176 -123 -30 -12 -49 -2 -58 29 -7 26 13 47 79
82 48 25 67 30 102 26 24 -3 48 -9 53 -14z m-1751 -106 c0 -11 -35 -73 -44
-79 -6 -5 -2 -8 10 -8 11 0 24 4 30 10 5 5 15 6 24 0 8 -5 11 -12 7 -17 -5 -4
-12 -1 -17 7 -9 13 -10 13 -10 0 0 -8 -18 -24 -41 -34 -22 -11 -42 -23 -45
-28 -7 -11 49 14 57 26 4 5 12 5 18 2 6 -4 11 -2 11 3 0 6 9 11 20 11 11 0 20
5 20 10 0 6 5 10 11 10 7 0 18 8 25 18 9 11 13 12 14 4 0 -24 -41 -56 -175
-135 -88 -52 -317 -167 -332 -167 -7 0 -13 -5 -13 -12 0 -6 -3 -9 -6 -5 -3 3
-21 -3 -40 -14 -19 -10 -40 -19 -47 -19 -7 0 -4 5 5 10 12 8 15 19 12 43 -4
28 0 35 36 62 23 17 50 35 61 41 11 6 34 24 52 40 18 16 43 35 55 41 18 11 20
10 16 -2 -9 -22 9 -18 24 5 7 11 19 20 28 20 13 0 11 -4 -6 -18 l-22 -18 25
-11 c20 -10 26 -9 31 3 3 8 12 14 21 14 8 0 15 5 15 10 0 6 -5 10 -11 10 -5 0
-7 5 -3 11 5 8 9 8 14 -1 6 -9 17 -6 42 14 19 14 40 26 46 26 7 0 12 7 12 16
0 14 -2 15 -17 3 -10 -8 -20 -17 -23 -20 -10 -12 -45 -18 -59 -10 -10 6 -2 15
28 32 23 12 41 28 41 35 0 6 13 14 29 17 17 4 35 15 41 27 9 17 30 28 30 17z
m-820 -538 c0 -5 -4 -9 -10 -9 -5 0 -10 7 -10 16 0 8 5 12 10 9 6 -3 10 -10
10 -16z m-70 -29 c0 -5 -5 -10 -11 -10 -5 0 -7 5 -4 10 3 6 8 10 11 10 2 0 4
-4 4 -10z m44 -5 c-4 -8 -10 -12 -15 -9 -11 6 -2 24 11 24 5 0 7 -7 4 -15z
m-4154 -645 c0 -5 -4 -10 -10 -10 -5 0 -10 5 -10 10 0 6 5 10 10 10 6 0 10 -4
10 -10z m5755 -520 c3 -5 1 -10 -4 -10 -6 0 -11 5 -11 10 0 6 2 10 4 10 3 0 8
-4 11 -10z m-4225 -310 c0 -5 -11 -10 -25 -10 -14 0 -25 5 -25 10 0 6 11 10
25 10 14 0 25 -4 25 -10z m90 -9 c0 -5 -7 -12 -16 -15 -22 -9 -24 -8 -24 9 0
8 9 15 20 15 11 0 20 -4 20 -9z m-75 -41 c3 -5 1 -10 -4 -10 -6 0 -11 5 -11
10 0 6 2 10 4 10 3 0 8 -4 11 -10z m325 -90 c0 -5 -5 -10 -11 -10 -5 0 -7 5
-4 10 3 6 8 10 11 10 2 0 4 -4 4 -10z m290 -41 c0 -11 -4 -17 -10 -14 -5 3
-10 1 -10 -5 0 -6 -4 -8 -10 -5 -6 4 -5 13 3 25 15 26 27 25 27 -1z m40 1 c0
-5 -7 -10 -15 -10 -8 0 -15 5 -15 10 0 6 7 10 15 10 8 0 15 -4 15 -10z"/>
<path d="M9474 5164 c-18 -14 -18 -15 4 -4 12 6 22 13 22 15 0 8 -5 6 -26 -11z"/>
<path d="M8850 4865 c0 -8 3 -15 6 -15 3 0 12 7 20 15 14 13 13 15 -5 15 -12
0 -21 -6 -21 -15z"/>
<path d="M12563 7021 c0 -11 5 -17 9 -15 11 7 10 34 -1 34 -6 0 -9 -9 -8 -19z"/>
<path d="M12560 6940 c0 -5 7 -7 15 -4 8 4 15 8 15 10 0 2 -7 4 -15 4 -8 0
-15 -4 -15 -10z"/>
<path d="M12585 6890 c3 -5 8 -10 11 -10 2 0 4 5 4 10 0 6 -5 10 -11 10 -5 0
-7 -4 -4 -10z"/>
<path d="M3190 6090 c0 -5 5 -10 10 -10 6 0 10 5 10 10 0 6 -4 10 -10 10 -5 0
-10 -4 -10 -10z"/>
</g>
</svg>
